<?xml version="1.0" standalone="no"?>
<!DOCTYPE svg PUBLIC "-//W3C//DTD SVG 20010904//EN"
 "http://www.w3.org/TR/2001/REC-SVG-20010904/DTD/svg10.dtd">
<svg version="1.0" xmlns="http://www.w3.org/2000/svg"
 width="512.000000pt" height="512.000000pt" viewBox="0 0 512.000000 512.000000"
 preserveAspectRatio="xMidYMid meet">

<g transform="translate(0.000000,512.000000) scale(0.100000,-0.100000)"
fill="#000000" stroke="none">
<path d="M1132 5104 c-112 -30 -210 -113 -265 -223 -32 -65 -32 -66 -35 -242
l-4 -177 -251 -4 c-233 -3 -256 -5 -309 -26 -109 -44 -196 -131 -240 -240
l-23 -57 -3 -1392 -2 -1393 2560 0 2560 0 -2 1393 -3 1392 -23 58 c-45 110
-130 195 -241 239 -52 21 -75 23 -308 26 l-251 4 -4 177 -3 177 -33 66 c-36
74 -100 145 -165 183 -99 57 -39 55 -1532 54 -1155 0 -1378 -3 -1423 -15z
m2843 -167 c96 -43 155 -138 155 -249 l0 -68 -1570 0 -1570 0 0 61 c0 84 16
132 63 185 44 50 80 72 140 84 23 4 650 7 1392 7 1277 -2 1352 -3 1390 -20z
m155 -1967 l0 -1490 -1570 0 -1570 0 0 1490 0 1490 1570 0 1570 0 0 -1490z
m-3302 1243 l3 -83 -221 0 -222 0 -29 -29 -29 -30 0 -1293 0 -1293 -85 -3 -85
-3 0 1285 c0 876 3 1301 11 1335 20 93 99 172 190 190 24 5 138 8 254 8 l210
-2 3 -82z m3973 65 c53 -23 105 -73 131 -126 l23 -47 3 -1313 2 -1313 -85 3
-85 3 0 1293 0 1293 -29 30 -29 29 -221 0 -221 0 0 78 c0 43 3 82 8 86 4 4
111 6 237 4 182 -3 237 -7 266 -20z m-3973 -1555 l2 -1243 -170 0 -170 0 0
1238 c0 681 3 1242 7 1246 4 3 79 5 167 4 l161 -3 3 -1242z m3800 0 l2 -1243
-170 0 -170 0 0 1238 c0 681 3 1242 7 1246 4 3 79 5 167 4 l161 -3 3 -1242z"/>
<path d="M2480 4207 l0 -84 -64 -11 c-224 -42 -421 -195 -522 -407 -29 -61
-52 -136 -69 -226 -3 -17 -15 -31 -35 -39 -41 -17 -105 -89 -120 -136 -42
-123 19 -261 136 -310 50 -21 1458 -21 1508 0 117 49 178 187 136 310 -15 47
-79 119 -120 136 -20 8 -32 22 -35 39 -28 148 -72 256 -148 358 -96 129 -267
238 -427 271 l-80 17 0 82 0 83 -80 0 -80 0 0 -83z m260 -274 c139 -46 255
-141 325 -268 31 -56 65 -151 65 -182 0 -11 -105 -13 -570 -13 -481 0 -570 2
-570 14 0 29 41 143 69 191 88 152 261 266 431 284 94 9 165 2 250 -26z m536
-655 c34 -33 35 -80 3 -114 l-22 -24 -697 0 -697 0 -22 24 c-41 43 -24 113 34
137 11 4 325 7 697 6 l678 -2 26 -27z"/>
<path d="M1225 2803 c-11 -3 -30 -14 -42 -26 -22 -20 -23 -26 -23 -212 0 -179
1 -194 21 -219 l20 -26 204 0 204 0 20 26 c20 25 21 40 21 215 0 184 0 188
-24 216 l-24 28 -179 2 c-98 1 -187 -1 -198 -4z m260 -243 l0 -85 -82 -3 -83
-3 0 91 0 91 83 -3 82 -3 0 -85z"/>
<path d="M1820 2730 l0 -80 80 0 80 0 0 80 0 80 -80 0 -80 0 0 -80z"/>
<path d="M2150 2730 l0 -80 905 0 905 0 0 80 0 80 -905 0 -905 0 0 -80z"/>
<path d="M1820 2395 l0 -75 80 0 80 0 0 75 0 75 -80 0 -80 0 0 -75z"/>
<path d="M2150 2395 l0 -75 490 0 490 0 0 75 0 75 -490 0 -490 0 0 -75z"/>
<path d="M1181 2114 c-20 -25 -21 -40 -21 -214 0 -174 1 -189 21 -214 l20 -26
199 0 c267 0 245 -21 245 240 0 261 22 240 -245 240 l-199 0 -20 -26z m309
-214 l0 -90 -85 0 -85 0 0 90 0 90 85 0 85 0 0 -90z"/>
<path d="M1820 2065 l0 -75 80 0 80 0 0 75 0 75 -80 0 -80 0 0 -75z"/>
<path d="M2150 2065 l0 -75 905 0 905 0 0 75 0 75 -905 0 -905 0 0 -75z"/>
<path d="M1820 1735 l0 -75 80 0 80 0 0 75 0 75 -80 0 -80 0 0 -75z"/>
<path d="M2150 1735 l0 -75 490 0 490 0 0 75 0 75 -490 0 -490 0 0 -75z"/>
</g>
</svg>
